<svg width="1522" height="623" viewBox="0 0 1522 623" fill="none" xmlns="http://www.w3.org/2000/svg">
<path d="M205.283 623L208.573 80.2598L157.252 623H102.641L51.3207 80.2598L54.6105 623H0V8.55228H102.641L129.618 394.062L157.252 8.55228H259.893V623H205.283Z" fill="#A6231D"/>
<path d="M354.033 63.8131V288.146H402.721V343.407H354.033V567.739H402.721V623H299.422V8.55228H402.721V63.8131H354.033Z" fill="#A6231D"/>
<path d="M599.317 623H545.365L544.707 434.85C544.707 419.061 543.171 405.904 540.101 395.378C537.031 384.414 531.109 372.353 522.336 359.195C512.247 374.546 505.449 387.922 501.939 399.325C498.43 410.728 496.676 425.421 496.676 443.402V623H442.065V8.55228H525.626C574.753 8.55228 599.317 33.9898 599.317 84.8648V179.598C599.317 208.544 596.466 231.569 590.764 248.674C585.061 265.778 573.657 286.611 556.55 311.171C573.218 334.854 584.404 355.248 590.106 372.353C596.247 389.019 599.317 411.167 599.317 438.797V623ZM544.707 91.4435C544.707 82.6719 542.952 75.874 539.443 71.0496C536.373 65.7867 530.232 63.1552 521.02 63.1552H496.676V299.987C497.992 298.672 498.869 297.356 499.308 296.04C500.185 294.724 501.062 293.628 501.939 292.751C519.485 268.629 530.89 250.209 536.153 237.49C541.856 224.333 544.707 207.667 544.707 187.492V91.4435Z" fill="#A6231D"/>
<path d="M722.242 0C771.37 0 795.933 25.2182 795.933 75.6547V547.345C795.933 597.782 771.37 623 722.242 623H751.192H712.373C686.055 623 667.193 616.421 655.788 603.264C644.384 589.668 638.682 571.029 638.682 547.345V75.6547C638.682 51.5329 644.384 32.8933 655.788 19.736C667.193 6.57866 686.055 0 712.373 0H744.613H722.242ZM741.323 82.8912C741.323 74.1197 739.568 67.3217 736.059 62.4973C732.55 57.2344 726.19 54.603 716.979 54.603C707.767 54.603 701.407 57.2344 697.898 62.4973C694.827 67.3217 693.292 74.1197 693.292 82.8912V540.109C693.292 548.88 694.827 555.898 697.898 561.16C701.407 565.985 707.767 568.397 716.979 568.397C726.19 568.397 732.55 565.985 736.059 561.16C739.568 555.898 741.323 548.88 741.323 540.109V82.8912Z" fill="#A6231D"/>
<path d="M949.782 311.171C966.889 335.731 978.294 356.564 983.996 373.668C989.699 390.773 992.55 413.798 992.55 442.744V623H938.597L937.939 434.85C937.939 419.061 936.404 405.904 933.333 395.378C930.263 384.414 924.341 372.353 915.569 359.195C905.48 374.546 898.681 387.922 895.172 399.325C891.663 410.728 889.908 425.421 889.908 443.402V623H835.298V8.55228H889.908V299.987C921.929 264.462 937.939 226.964 937.939 187.492L938.597 8.55228H992.55V179.598C992.55 208.544 989.699 231.569 983.996 248.674C978.294 265.778 966.889 286.611 949.782 311.171Z" fill="#A6231D"/>
<path d="M1146.4 311.171C1163.51 335.731 1174.91 356.564 1180.61 373.668C1186.31 390.773 1189.17 413.798 1189.17 442.744V623H1135.21L1134.56 434.85C1134.56 419.061 1133.02 405.904 1129.95 395.378C1126.88 384.414 1120.96 372.353 1112.18 359.195C1102.1 374.546 1095.3 387.922 1091.79 399.325C1088.28 410.728 1086.52 425.421 1086.52 443.402V623H1031.91V8.55228H1086.52V299.987C1118.55 264.462 1134.56 226.964 1134.56 187.492L1135.21 8.55228H1189.17V179.598C1189.17 208.544 1186.31 231.569 1180.61 248.674C1174.91 265.778 1163.51 286.611 1146.4 311.171Z" fill="#A6231D"/>
<path d="M1283.14 63.8131V288.146H1331.83V343.407H1283.14V567.739H1331.83V623H1228.53V8.55228H1331.83V63.8131H1283.14Z" fill="#A6231D"/>
<path d="M1522 63.1552H1470.68V623H1416.07V63.1552H1364.75V8.55228H1522V63.1552Z" fill="#A6231D"/>
<path d="M205.283 623L208.573 80.2598L157.252 623H102.641L51.3207 80.2598L54.6105 623H0V8.55228H102.641L129.618 394.062L157.252 8.55228H259.893V623H205.283Z" stroke="white"/>
<path d="M354.033 63.8131V288.146H402.721V343.407H354.033V567.739H402.721V623H299.422V8.55228H402.721V63.8131H354.033Z" stroke="white"/>
<path d="M599.317 623H545.365L544.707 434.85C544.707 419.061 543.171 405.904 540.101 395.378C537.031 384.414 531.109 372.353 522.336 359.195C512.247 374.546 505.449 387.922 501.939 399.325C498.43 410.728 496.676 425.421 496.676 443.402V623H442.065V8.55228H525.626C574.753 8.55228 599.317 33.9898 599.317 84.8648V179.598C599.317 208.544 596.466 231.569 590.764 248.674C585.061 265.778 573.657 286.611 556.55 311.171C573.218 334.854 584.404 355.248 590.106 372.353C596.247 389.019 599.317 411.167 599.317 438.797V623ZM544.707 91.4435C544.707 82.6719 542.952 75.874 539.443 71.0496C536.373 65.7867 530.232 63.1552 521.02 63.1552H496.676V299.987C497.992 298.672 498.869 297.356 499.308 296.04C500.185 294.724 501.062 293.628 501.939 292.751C519.485 268.629 530.89 250.209 536.153 237.49C541.856 224.333 544.707 207.667 544.707 187.492V91.4435Z" stroke="white"/>
<path d="M722.242 0C771.37 0 795.933 25.2182 795.933 75.6547V547.345C795.933 597.782 771.37 623 722.242 623H751.192H712.373C686.055 623 667.193 616.421 655.788 603.264C644.384 589.668 638.682 571.029 638.682 547.345V75.6547C638.682 51.5329 644.384 32.8933 655.788 19.736C667.193 6.57866 686.055 0 712.373 0H744.613H722.242ZM741.323 82.8912C741.323 74.1197 739.568 67.3217 736.059 62.4973C732.55 57.2344 726.19 54.603 716.979 54.603C707.767 54.603 701.407 57.2344 697.898 62.4973C694.827 67.3217 693.292 74.1197 693.292 82.8912V540.109C693.292 548.88 694.827 555.898 697.898 561.16C701.407 565.985 707.767 568.397 716.979 568.397C726.19 568.397 732.55 565.985 736.059 561.16C739.568 555.898 741.323 548.88 741.323 540.109V82.8912Z" stroke="white"/>
<path d="M949.782 311.171C966.889 335.731 978.294 356.564 983.996 373.668C989.699 390.773 992.55 413.798 992.55 442.744V623H938.597L937.939 434.85C937.939 419.061 936.404 405.904 933.333 395.378C930.263 384.414 924.341 372.353 915.569 359.195C905.48 374.546 898.681 387.922 895.172 399.325C891.663 410.728 889.908 425.421 889.908 443.402V623H835.298V8.55228H889.908V299.987C921.929 264.462 937.939 226.964 937.939 187.492L938.597 8.55228H992.55V179.598C992.55 208.544 989.699 231.569 983.996 248.674C978.294 265.778 966.889 286.611 949.782 311.171Z" stroke="white"/>
<path d="M1146.4 311.171C1163.51 335.731 1174.91 356.564 1180.61 373.668C1186.31 390.773 1189.17 413.798 1189.17 442.744V623H1135.21L1134.56 434.85C1134.56 419.061 1133.02 405.904 1129.95 395.378C1126.88 384.414 1120.96 372.353 1112.18 359.195C1102.1 374.546 1095.3 387.922 1091.79 399.325C1088.28 410.728 1086.52 425.421 1086.52 443.402V623H1031.91V8.55228H1086.52V299.987C1118.55 264.462 1134.56 226.964 1134.56 187.492L1135.21 8.55228H1189.17V179.598C1189.17 208.544 1186.31 231.569 1180.61 248.674C1174.91 265.778 1163.51 286.611 1146.4 311.171Z" stroke="white"/>
<path d="M1283.14 63.8131V288.146H1331.83V343.407H1283.14V567.739H1331.83V623H1228.53V8.55228H1331.83V63.8131H1283.14Z" stroke="white"/>
<path d="M1522 63.1552H1470.68V623H1416.07V63.1552H1364.75V8.55228H1522V63.1552Z" stroke="white"/>
</svg>
