<svg width="405" height="330" viewBox="0 0 405 330" fill="none" xmlns="http://www.w3.org/2000/svg">
<path fill-rule="evenodd" clip-rule="evenodd" d="M190.807 172.739L398.039 1.06775C400.809 -1.22691 404.956 1.34753 404.421 5.03059L358.058 324.784C357.778 326.718 356.203 328.122 354.313 328.122H305.662C303.737 314.315 288.91 299.934 265.238 303.151C265.109 303.169 264.991 303.054 265.005 302.924C268.435 270.495 216.862 260.691 206.995 289.86C206.965 289.95 206.87 290.009 206.776 289.998C168.029 285.325 169.588 237.906 195.149 226.581C195.368 226.483 195.249 226.115 195.012 226.152C142.391 234.195 132.268 272.88 138.139 295.071C138.176 295.212 138.046 295.34 137.902 295.318C122.576 293.006 122.64 308.435 132.107 311.419C115.893 306.308 101.755 317.392 98.5057 329.126L4.38889 329.612C1.8696 329.625 0.0520877 327.263 0.643548 324.746L61.5713 65.4113C62.2766 62.4089 65.8521 61.1721 68.0789 63.1603L190.807 172.739ZM206.619 205.492C204.014 212.003 203.736 215.026 204.387 219.607C204.403 219.713 204.476 219.805 204.576 219.844C211.391 222.54 214.653 222.996 219.525 222.412C219.673 222.394 219.813 222.485 219.851 222.629C221.392 228.492 220.723 236.708 220.446 239.371C220.416 239.656 220.757 239.821 220.954 239.614C223.302 237.15 231.754 227.881 233.709 220.177C233.73 220.095 233.786 220.025 233.861 219.985C253.837 209.239 259.253 201.02 259.4 183.072C259.401 182.941 259.316 182.822 259.192 182.781C240.679 176.758 225.563 181.615 213.867 194.141C213.808 194.205 213.721 194.24 213.633 194.237C203.42 193.858 198.132 195.301 189.722 199.177C189.459 199.298 189.508 199.685 189.792 199.741C195.99 200.973 199.777 201.849 206.471 205.106C206.613 205.175 206.678 205.346 206.619 205.492Z" fill="#063F58"/>
<ellipse cx="243.395" cy="193.112" rx="6.8781" ry="6.88158" fill="#063F58"/>
</svg>
