<svg width="415" height="339" viewBox="0 0 415 339" fill="none" xmlns="http://www.w3.org/2000/svg">
<path fill-rule="evenodd" clip-rule="evenodd" d="M195.508 177.353L408.102 1.25669C410.872 -1.03786 415.018 1.53636 414.484 5.21928L366.904 333.332C366.623 335.266 365.048 336.67 363.158 336.67H313.203C311.229 322.516 296.027 307.774 271.756 311.075C271.627 311.093 271.509 310.979 271.523 310.848C275.047 277.6 222.166 267.548 212.054 297.454C212.023 297.544 211.929 297.604 211.835 297.592C172.087 292.802 173.708 244.142 199.954 232.567C200.173 232.47 200.054 232.102 199.817 232.139C145.826 240.369 135.444 280.048 141.469 302.8C141.506 302.94 141.376 303.068 141.232 303.046C125.513 300.67 125.577 316.49 135.284 319.549C118.661 314.311 104.167 325.672 100.837 337.701L4.32663 338.199C1.8072 338.212 -0.0104488 335.851 0.581075 333.333L63.1092 67.211C63.8146 64.2087 67.3899 62.9721 69.6167 64.9602L195.508 177.353ZM211.671 210.96C208.997 217.64 208.713 220.74 209.381 225.439C209.396 225.545 209.47 225.637 209.569 225.676C216.562 228.442 219.906 228.909 224.906 228.309C225.054 228.291 225.194 228.382 225.232 228.526C226.817 234.552 226.123 243.008 225.841 245.715C225.811 246 226.151 246.166 226.349 245.959C228.735 243.457 237.434 233.93 239.44 226.016C239.461 225.934 239.517 225.864 239.592 225.824C260.075 214.806 265.627 206.382 265.777 187.979C265.778 187.848 265.692 187.729 265.569 187.688C246.586 181.511 231.088 186.491 219.097 199.333C219.037 199.397 218.95 199.432 218.863 199.429C208.382 199.04 202.961 200.522 194.326 204.502C194.063 204.624 194.111 205.011 194.396 205.067C200.765 206.332 204.649 207.228 211.523 210.574C211.665 210.643 211.73 210.814 211.671 210.96Z" fill="#E1E8ED"/>
<ellipse cx="249.372" cy="198.277" rx="7.05456" ry="7.05399" fill="#E1E8ED"/>
</svg>
