<svg width="97" height="70" viewBox="0 0 97 70" fill="none" xmlns="http://www.w3.org/2000/svg">
<path fill-rule="evenodd" clip-rule="evenodd" d="M50.9507 37.0706L95.3931 0.217202C96.0853 -0.356762 97.1219 0.28745 96.9885 1.20862L87.2019 68.7725C87.1319 69.256 86.7385 69.6068 86.2663 69.6068H84.8426C84.7921 69.6147 84.7399 69.619 84.686 69.6193L76.0446 69.6639C75.6733 66.7473 72.5918 63.6855 67.6445 64.2645C67.5145 64.2798 67.3982 64.1673 67.4078 64.0368C67.8973 57.3421 57.2731 55.3392 55.094 61.3377C55.0616 61.4269 54.9684 61.4861 54.8743 61.4735C47.4481 60.4797 47.1231 52.0046 51.2768 48.7438C51.4652 48.5958 51.2936 48.112 51.0595 48.1632C41.2967 50.2983 39.2809 57.7905 40.3462 62.333C40.3795 62.4749 40.2583 62.6068 40.1133 62.5925C37.0972 62.2954 37.16 65.4316 39.1225 66.0508C35.6413 64.9525 32.6101 67.3672 31.9567 69.8916L10.956 70C10.3265 70.0032 9.87252 69.4133 10.0202 68.7839L22.8784 13.9983C23.0547 13.2472 23.949 12.9375 24.5055 13.435L50.9507 37.0706ZM54.8937 43.7009C54.4376 44.8875 54.373 45.5128 54.4808 46.3674C54.4942 46.4737 54.5658 46.5638 54.6657 46.6026C55.9363 47.096 56.616 47.206 57.5158 47.1214C57.664 47.1074 57.8039 47.1988 57.8354 47.3443C58.0248 48.2199 58.0128 49.2841 57.97 50.0179C57.9533 50.3039 58.3021 50.4639 58.4911 50.2486C59.2045 49.4357 60.3466 47.9932 60.7082 46.7252C60.7315 46.6434 60.7867 46.5727 60.8615 46.5321C64.9698 44.3034 66.1335 42.5704 66.1977 38.896C66.1999 38.7659 66.1157 38.6481 65.9915 38.6095C62.1676 37.4206 59.0322 38.4297 56.5899 41.001C56.5296 41.0644 56.4441 41.0998 56.3567 41.097C54.5293 41.0392 53.4465 41.2665 52.0387 41.8603C51.7716 41.973 51.8168 42.3564 52.1 42.4183C52.9873 42.6123 53.7018 42.8269 54.7445 43.3201C54.8866 43.3873 54.9501 43.5541 54.8937 43.7009Z" fill="#A6231D"/>
<path fill-rule="evenodd" clip-rule="evenodd" d="M45.9527 37.0706L90.3951 0.217202C91.0872 -0.356762 92.1239 0.28745 91.9905 1.20862L82.2039 68.7725C82.1338 69.256 81.7404 69.6068 81.2683 69.6068H79.8446C79.7941 69.6147 79.7418 69.619 79.688 69.6193L71.0485 69.6639C70.6772 66.7473 67.5957 63.6855 62.6484 64.2645C62.5184 64.2798 62.4021 64.1673 62.4117 64.0368C62.9012 57.3421 52.277 55.3392 50.0979 61.3377C50.0655 61.4269 49.9723 61.4861 49.8782 61.4735C42.452 60.4797 42.1271 52.0046 46.2807 48.7438C46.4691 48.5958 46.2975 48.112 46.0634 48.1632C36.3006 50.2983 34.2848 57.7905 35.3502 62.333C35.3834 62.4749 35.2622 62.6068 35.1172 62.5925C32.1012 62.2954 32.1639 65.4316 34.1265 66.0508C30.6452 64.9525 27.6141 67.3672 26.9606 69.8915L5.95794 70C5.32847 70.0032 4.87448 69.4133 5.02218 68.7839L17.8804 13.9983C18.0567 13.2472 18.9509 12.9375 19.5075 13.435L45.9527 37.0706ZM49.8976 43.7009C49.4415 44.8875 49.3769 45.5128 49.4847 46.3674C49.4981 46.4737 49.5697 46.5638 49.6696 46.6026C50.9402 47.096 51.6199 47.206 52.5197 47.1214C52.6679 47.1074 52.8078 47.1988 52.8393 47.3443C53.0287 48.2199 53.0167 49.2841 52.9739 50.0179C52.9572 50.3039 53.306 50.4639 53.495 50.2486C54.2084 49.4357 55.3505 47.9932 55.7121 46.7252C55.7354 46.6434 55.7906 46.5727 55.8654 46.5321C59.9737 44.3034 61.1374 42.5704 61.2016 38.896C61.2038 38.7659 61.1196 38.6481 60.9954 38.6095C57.1715 37.4206 54.0361 38.4297 51.5938 41.001C51.5335 41.0644 51.4481 41.0998 51.3606 41.097C49.5332 41.0392 48.4504 41.2665 47.0427 41.8603C46.7755 41.973 46.8208 42.3564 47.1039 42.4183C47.9912 42.6123 48.7057 42.8269 49.7485 43.3201C49.8905 43.3873 49.954 43.5541 49.8976 43.7009Z" fill="#5BB8E6"/>
<path fill-rule="evenodd" clip-rule="evenodd" d="M40.9585 37.0706L85.4009 0.217202C86.0931 -0.356762 87.1298 0.28745 86.9963 1.20862L77.2097 68.7725C77.1397 69.256 76.7463 69.6068 76.2741 69.6068H74.8505C74.7999 69.6147 74.7477 69.619 74.6938 69.6193L66.0544 69.6639C65.683 66.7473 62.6015 63.6855 57.6542 64.2645C57.5242 64.2798 57.408 64.1673 57.4175 64.0368C57.9071 57.3421 47.2829 55.3392 45.1038 61.3377C45.0714 61.4269 44.9781 61.4861 44.8841 61.4735C37.4578 60.4797 37.1329 52.0046 41.2865 48.7438C41.475 48.5958 41.3033 48.112 41.0693 48.1632C31.3065 50.2983 29.2907 57.7905 30.356 62.333C30.3893 62.4749 30.268 62.6068 30.123 62.5925C27.107 62.2954 27.1698 65.4316 29.1323 66.0508C25.6511 64.9525 22.6199 67.3672 21.9665 69.8915L0.9638 70C0.334329 70.0032 -0.119663 69.4133 0.0280367 68.7839L12.8862 13.9983C13.0625 13.2472 13.9568 12.9375 14.5134 13.435L40.9585 37.0706ZM44.9015 43.7009C44.4454 44.8875 44.3809 45.5128 44.4886 46.3674C44.502 46.4737 44.5736 46.5638 44.6735 46.6026C45.9441 47.096 46.6238 47.206 47.5236 47.1214C47.6718 47.1074 47.8117 47.1988 47.8432 47.3443C48.0326 48.2199 48.0206 49.2841 47.9778 50.0179C47.9611 50.3039 48.3099 50.4639 48.4989 50.2486C49.2123 49.4357 50.3544 47.9932 50.716 46.7252C50.7393 46.6434 50.7945 46.5727 50.8693 46.5321C54.9776 44.3034 56.1413 42.5704 56.2055 38.896C56.2077 38.7659 56.1235 38.6481 55.9993 38.6095C52.1754 37.4206 49.04 38.4297 46.5977 41.001C46.5374 41.0644 46.452 41.0998 46.3645 41.097C44.5371 41.0392 43.4543 41.2665 42.0466 41.8603C41.7794 41.973 41.8247 42.3564 42.1078 42.4183C42.9951 42.6123 43.7096 42.8269 44.7524 43.3201C44.8944 43.3873 44.9579 43.5541 44.9015 43.7009Z" fill="#E6E7E7"/>
</svg>
