<svg width="16" height="15" viewBox="0 0 16 15" fill="none" xmlns="http://www.w3.org/2000/svg">
<path d="M13.157 2.17972C12.4651 1.48624 11.6417 0.936453 10.7345 0.562274C9.82734 0.188095 8.85449 -0.0030174 7.87247 3.60187e-05C3.75622 3.60187e-05 0.405932 3.33378 0.405932 7.43252C0.405932 8.7422 0.750759 10.0228 1.40367 11.1478L0.34375 15L4.30361 13.9659C5.39835 14.5593 6.62492 14.8706 7.87153 14.8716H7.87436C11.9906 14.8716 15.3437 11.5378 15.3437 7.43908C15.3462 6.46224 15.1542 5.49459 14.7787 4.59204C14.4032 3.68948 13.8517 2.8699 13.1561 2.18066L13.157 2.17972ZM7.87436 13.6172C6.76183 13.6174 5.66972 13.3198 4.7125 12.7556L4.48544 12.6206L2.13572 13.2328L2.76319 10.9538L2.61622 10.7194C1.99228 9.73574 1.66257 8.59571 1.66559 7.43252C1.66758 5.79386 2.32285 4.22292 3.48757 3.06447C4.6523 1.90602 6.23133 1.25471 7.87813 1.25347C9.53537 1.25347 11.0965 1.89847 12.2676 3.06378C12.8455 3.63676 13.3036 4.31803 13.6154 5.0682C13.9272 5.81838 14.0865 6.6226 14.0841 7.43439C14.0812 10.8441 11.2962 13.6163 7.87436 13.6163V13.6172ZM11.2783 8.98876C11.0927 8.89501 10.1741 8.44689 10.0036 8.38502C9.83309 8.32314 9.70872 8.29127 9.58248 8.47877C9.45905 8.66345 9.1001 9.08251 8.99081 9.20814C8.88152 9.33095 8.77317 9.34876 8.58757 9.25501C8.40196 9.16126 7.79804 8.96533 7.08578 8.33252C6.53179 7.84033 6.15588 7.23096 6.04659 7.04627C5.9373 6.86158 6.03434 6.75939 6.1295 6.66846C6.21523 6.58596 6.3151 6.4519 6.40931 6.34315C6.50353 6.2344 6.53274 6.15846 6.59492 6.03283C6.6571 5.91002 6.62695 5.80127 6.57984 5.70752C6.53274 5.61377 6.1587 4.69971 6.00607 4.32753C5.85627 3.96378 5.69988 4.0144 5.58493 4.00784C5.47564 4.00221 5.35222 4.00221 5.2288 4.00221C5.10538 4.00221 4.90187 4.04909 4.73134 4.23378C4.56082 4.41846 4.07749 4.8694 4.07749 5.78346C4.07749 6.69752 4.74548 7.5797 4.83969 7.70533C4.93391 7.82814 6.15587 9.70595 8.02793 10.5094C8.47262 10.6997 8.82028 10.8141 9.09067 10.9022C9.53819 11.0428 9.94426 11.0222 10.2655 10.9753C10.6245 10.9228 11.3697 10.5272 11.5261 10.0931C11.6825 9.65908 11.6825 9.28783 11.6354 9.21095C11.5911 9.12845 11.4677 9.08251 11.2793 8.98783L11.2783 8.98876Z" fill="#063F58"/>
</svg>
